<svg width="160" height="52" viewBox="0 0 160 52" fill="none" xmlns="http://www.w3.org/2000/svg">
<g clip-path="url(#clip0_663_349)">
<rect x="10" y="10" width="32" height="32" rx="2" fill="#CAD5E2"/>
<rect width="32" height="32" transform="translate(10 10)" fill="white"/>
<path d="M17.5294 14.3922C17.5294 14.0456 17.2485 13.7647 16.902 13.7647H14.3922C14.0456 13.7647 13.7647 14.0456 13.7647 14.3922V33.8431C13.7647 34.1897 14.0456 34.4706 14.3922 34.4706H17.0588C17.0588 34.4706 17.2157 34.4706 17.3726 34.6275C17.5294 34.7843 17.5294 34.9412 17.5294 34.9412V37.6078C17.5294 37.9544 17.8103 38.2353 18.1569 38.2353H24.4314C24.7779 38.2353 25.0588 37.9544 25.0588 37.6078V35.098C25.0588 34.7515 24.7779 34.4706 24.4314 34.4706H18.1454C18.0498 34.4706 17.9555 34.4483 17.8699 34.4056C17.7507 34.346 17.6541 34.2493 17.5944 34.1301C17.5517 34.0445 17.5294 33.9502 17.5294 33.8546V14.3922Z" fill="url(#paint0_linear_663_349)"/>
<path d="M33.8431 13.7647C34.1897 13.7647 34.4706 14.0456 34.4706 14.3922V16.902C34.4706 17.0037 34.4936 17.1088 34.5656 17.1807L34.8193 17.4344C34.8912 17.5064 34.9963 17.5294 35.098 17.5294H37.6078C37.9544 17.5294 38.2353 17.8103 38.2353 18.1569L38.2353 31.9608C38.2353 32.3073 37.9544 32.5882 37.6078 32.5882H35.098C34.7515 32.5882 34.4706 32.3073 34.4706 31.9608V18.1569C34.4706 18.0551 34.4475 17.95 34.3756 17.8781L34.1219 17.6244C34.05 17.5525 33.9449 17.5294 33.8431 17.5294H21.9216C21.575 17.5294 21.2941 17.2485 21.2941 16.902V14.3922C21.2941 14.0456 21.575 13.7647 21.9216 13.7647L33.8431 13.7647Z" fill="url(#paint1_linear_663_349)"/>
<rect x="28.8235" y="34.4706" width="3.76471" height="13.1765" rx="1.88235" transform="rotate(-180 28.8235 34.4706)" fill="#D9D9D9"/>
<rect x="28.8235" y="34.4706" width="3.76471" height="13.1765" rx="1.88235" transform="rotate(-180 28.8235 34.4706)" fill="url(#paint2_linear_663_349)"/>
<rect x="38.2353" y="25.0588" width="3.76471" height="24.4706" rx="1.88235" transform="rotate(90 38.2353 25.0588)" fill="url(#paint3_linear_663_349)"/>
</g>
<path d="M53.44 32V19.22H55.456V30.218H62.314V32H53.44ZM67.8603 32.18C67.1283 32.18 66.4623 32.054 65.8623 31.802C65.2743 31.538 64.7643 31.184 64.3323 30.74C63.9003 30.284 63.5643 29.768 63.3243 29.192C63.0963 28.604 62.9823 27.98 62.9823 27.32C62.9823 26.432 63.1863 25.622 63.5942 24.89C64.0023 24.146 64.5723 23.552 65.3043 23.108C66.0363 22.652 66.8943 22.424 67.8783 22.424C68.8623 22.424 69.7083 22.652 70.4163 23.108C71.1363 23.552 71.6943 24.14 72.0903 24.872C72.4863 25.604 72.6843 26.39 72.6843 27.23C72.6843 27.374 72.6783 27.512 72.6663 27.644C72.6543 27.764 72.6423 27.866 72.6303 27.95H65.0883C65.1243 28.502 65.2743 28.988 65.5383 29.408C65.8143 29.816 66.1623 30.14 66.5823 30.38C67.0023 30.608 67.4523 30.722 67.9323 30.722C68.4603 30.722 68.9583 30.59 69.4263 30.326C69.9063 30.062 70.2303 29.714 70.3983 29.282L72.0903 29.768C71.8863 30.224 71.5743 30.638 71.1543 31.01C70.7463 31.37 70.2603 31.658 69.6963 31.874C69.1323 32.078 68.5203 32.18 67.8603 32.18ZM65.0343 26.636H70.7223C70.6863 26.096 70.5303 25.622 70.2543 25.214C69.9903 24.794 69.6483 24.47 69.2283 24.242C68.8203 24.002 68.3643 23.882 67.8603 23.882C67.3683 23.882 66.9123 24.002 66.4923 24.242C66.0843 24.47 65.7483 24.794 65.4843 25.214C65.2203 25.622 65.0703 26.096 65.0343 26.636ZM73.6153 29.246C73.6153 28.646 73.7833 28.124 74.1193 27.68C74.4673 27.224 74.9413 26.876 75.5413 26.636C76.1413 26.384 76.8373 26.258 77.6293 26.258C78.0493 26.258 78.4753 26.288 78.9073 26.348C79.3513 26.408 79.7413 26.504 80.0773 26.636V26.042C80.0773 25.382 79.8793 24.866 79.4833 24.494C79.0873 24.122 78.5173 23.936 77.7733 23.936C77.2453 23.936 76.7473 24.032 76.2793 24.224C75.8113 24.404 75.3133 24.662 74.7853 24.998L74.1193 23.666C74.7433 23.246 75.3673 22.934 75.9913 22.73C76.6273 22.526 77.2933 22.424 77.9893 22.424C79.2493 22.424 80.2393 22.76 80.9593 23.432C81.6913 24.092 82.0573 25.034 82.0573 26.258V29.768C82.0573 29.996 82.0933 30.158 82.1653 30.254C82.2493 30.35 82.3873 30.404 82.5793 30.416V32C82.3993 32.036 82.2373 32.06 82.0933 32.072C81.9493 32.084 81.8293 32.09 81.7333 32.09C81.3133 32.09 80.9953 31.988 80.7793 31.784C80.5633 31.58 80.4373 31.34 80.4013 31.064L80.3473 30.524C79.9393 31.052 79.4173 31.46 78.7813 31.748C78.1453 32.036 77.5033 32.18 76.8553 32.18C76.2313 32.18 75.6733 32.054 75.1813 31.802C74.6893 31.538 74.3053 31.184 74.0293 30.74C73.7533 30.296 73.6153 29.798 73.6153 29.246ZM79.6093 29.822C79.7533 29.666 79.8673 29.51 79.9513 29.354C80.0353 29.198 80.0773 29.06 80.0773 28.94V27.86C79.7413 27.728 79.3873 27.632 79.0153 27.572C78.6433 27.5 78.2773 27.464 77.9173 27.464C77.1973 27.464 76.6093 27.608 76.1533 27.896C75.7093 28.184 75.4873 28.58 75.4873 29.084C75.4873 29.36 75.5593 29.624 75.7033 29.876C75.8593 30.128 76.0753 30.332 76.3513 30.488C76.6393 30.644 76.9933 30.722 77.4133 30.722C77.8453 30.722 78.2593 30.638 78.6553 30.47C79.0513 30.302 79.3693 30.086 79.6093 29.822ZM83.8655 27.302C83.8655 26.402 84.0455 25.586 84.4055 24.854C84.7775 24.11 85.2815 23.522 85.9175 23.09C86.5535 22.646 87.2855 22.424 88.1135 22.424C88.8335 22.424 89.4815 22.61 90.0575 22.982C90.6455 23.354 91.1015 23.816 91.4255 24.368V18.86H93.4055V29.768C93.4055 29.996 93.4475 30.158 93.5315 30.254C93.6155 30.35 93.7535 30.404 93.9455 30.416V32C93.5735 32.06 93.2855 32.09 93.0815 32.09C92.7095 32.09 92.3915 31.982 92.1275 31.766C91.8755 31.55 91.7435 31.292 91.7315 30.992L91.7135 30.29C91.3535 30.89 90.8675 31.358 90.2555 31.694C89.6435 32.018 89.0075 32.18 88.3475 32.18C87.6995 32.18 87.0995 32.054 86.5475 31.802C86.0075 31.55 85.5335 31.196 85.1255 30.74C84.7295 30.284 84.4175 29.762 84.1895 29.174C83.9735 28.586 83.8655 27.962 83.8655 27.302ZM91.4255 28.616V26.15C91.2935 25.766 91.0775 25.424 90.7775 25.124C90.4895 24.812 90.1595 24.566 89.7875 24.386C89.4275 24.206 89.0675 24.116 88.7075 24.116C88.2875 24.116 87.9035 24.206 87.5555 24.386C87.2195 24.566 86.9255 24.806 86.6735 25.106C86.4335 25.406 86.2475 25.748 86.1155 26.132C85.9835 26.516 85.9175 26.918 85.9175 27.338C85.9175 27.77 85.9895 28.178 86.1335 28.562C86.2775 28.934 86.4815 29.27 86.7455 29.57C87.0215 29.858 87.3335 30.086 87.6815 30.254C88.0415 30.41 88.4315 30.488 88.8515 30.488C89.1155 30.488 89.3795 30.44 89.6435 30.344C89.9195 30.248 90.1775 30.116 90.4175 29.948C90.6695 29.78 90.8795 29.582 91.0475 29.354C91.2275 29.126 91.3535 28.88 91.4255 28.616ZM101.269 32.09C100.429 32.09 99.6434 31.916 98.9114 31.568C98.1794 31.22 97.5374 30.74 96.9854 30.128C96.4454 29.516 96.0194 28.82 95.7074 28.04C95.4074 27.26 95.2574 26.432 95.2574 25.556C95.2574 24.68 95.4074 23.858 95.7074 23.09C96.0194 22.322 96.4454 21.638 96.9854 21.038C97.5374 20.438 98.1794 19.97 98.9114 19.634C99.6554 19.298 100.465 19.13 101.341 19.13C102.553 19.13 103.573 19.388 104.401 19.904C105.241 20.408 105.871 21.08 106.291 21.92L104.743 23.036C104.407 22.34 103.927 21.818 103.303 21.47C102.691 21.122 102.019 20.948 101.287 20.948C100.687 20.948 100.141 21.074 99.6494 21.326C99.1574 21.578 98.7314 21.926 98.3714 22.37C98.0234 22.802 97.7594 23.3 97.5794 23.864C97.3994 24.416 97.3094 24.998 97.3094 25.61C97.3094 26.258 97.4114 26.864 97.6154 27.428C97.8194 27.992 98.1074 28.49 98.4794 28.922C98.8514 29.342 99.2894 29.672 99.7934 29.912C100.297 30.152 100.843 30.272 101.431 30.272C102.127 30.272 102.787 30.098 103.411 29.75C104.047 29.39 104.641 28.856 105.193 28.148V30.2C104.077 31.46 102.769 32.09 101.269 32.09ZM104.995 27.032H102.313V25.538H106.687V32H104.995V27.032ZM113.001 32.18C112.269 32.18 111.603 32.054 111.003 31.802C110.415 31.538 109.905 31.184 109.473 30.74C109.041 30.284 108.705 29.768 108.465 29.192C108.237 28.604 108.123 27.98 108.123 27.32C108.123 26.432 108.327 25.622 108.735 24.89C109.143 24.146 109.713 23.552 110.445 23.108C111.177 22.652 112.035 22.424 113.019 22.424C114.003 22.424 114.849 22.652 115.557 23.108C116.277 23.552 116.835 24.14 117.231 24.872C117.627 25.604 117.825 26.39 117.825 27.23C117.825 27.374 117.819 27.512 117.807 27.644C117.795 27.764 117.783 27.866 117.771 27.95H110.229C110.265 28.502 110.415 28.988 110.679 29.408C110.955 29.816 111.303 30.14 111.723 30.38C112.143 30.608 112.593 30.722 113.073 30.722C113.601 30.722 114.099 30.59 114.567 30.326C115.047 30.062 115.371 29.714 115.539 29.282L117.231 29.768C117.027 30.224 116.715 30.638 116.295 31.01C115.887 31.37 115.401 31.658 114.837 31.874C114.273 32.078 113.661 32.18 113.001 32.18ZM110.175 26.636H115.863C115.827 26.096 115.671 25.622 115.395 25.214C115.131 24.794 114.789 24.47 114.369 24.242C113.961 24.002 113.505 23.882 113.001 23.882C112.509 23.882 112.053 24.002 111.633 24.242C111.225 24.47 110.889 24.794 110.625 25.214C110.361 25.622 110.211 26.096 110.175 26.636ZM127.882 32H125.902V26.726C125.902 25.85 125.758 25.208 125.47 24.8C125.194 24.392 124.78 24.188 124.228 24.188C123.844 24.188 123.46 24.284 123.076 24.476C122.704 24.668 122.368 24.932 122.068 25.268C121.768 25.592 121.552 25.97 121.42 26.402V32H119.44V22.586H121.24V24.476C121.48 24.056 121.792 23.696 122.176 23.396C122.572 23.084 123.016 22.844 123.508 22.676C124 22.508 124.522 22.424 125.074 22.424C125.638 22.424 126.1 22.526 126.46 22.73C126.832 22.934 127.12 23.216 127.324 23.576C127.54 23.924 127.684 24.332 127.756 24.8C127.84 25.256 127.882 25.742 127.882 26.258V32ZM138.007 19.22H139.915L144.883 32H142.759L141.409 28.526H136.477L135.145 32H133.003L138.007 19.22ZM141.013 27.032L138.961 21.434L136.837 27.032H141.013ZM146.463 32V19.22H148.479V32H146.463Z" fill="#111622"/>
<defs>
<linearGradient id="paint0_linear_663_349" x1="19.4118" y1="13.7647" x2="19.4118" y2="38.2353" gradientUnits="userSpaceOnUse">
<stop stop-color="#6C78EA"/>
<stop offset="1" stop-color="#946CEA"/>
</linearGradient>
<linearGradient id="paint1_linear_663_349" x1="29.7647" y1="13.7647" x2="29.7647" y2="32.5882" gradientUnits="userSpaceOnUse">
<stop stop-color="#6CC4EA"/>
<stop offset="1" stop-color="#6CEADB"/>
</linearGradient>
<linearGradient id="paint2_linear_663_349" x1="30.7059" y1="34.4706" x2="30.7059" y2="47.6471" gradientUnits="userSpaceOnUse">
<stop stop-color="#6C78EA"/>
<stop offset="1" stop-color="#946CEA"/>
</linearGradient>
<linearGradient id="paint3_linear_663_349" x1="40.1176" y1="25.0588" x2="40.1176" y2="49.5294" gradientUnits="userSpaceOnUse">
<stop stop-color="#D8F2F5" stop-opacity="0.6"/>
<stop offset="1" stop-color="#7D68FF"/>
</linearGradient>
<clipPath id="clip0_663_349">
<rect x="10" y="10" width="32" height="32" rx="2" fill="white"/>
</clipPath>
</defs>
</svg>
